<svg id="my-svg" width="100%" xmlns="http://www.w3.org/2000/svg" xmlns:xlink="http://www.w3.org/1999/xlink" class="erDiagram" style="max-width: 261.766px; background-color: white;" viewBox="0 0 261.765625 587.25" role="graphics-document document" aria-roledescription="er"><style>#my-svg{font-family:"trebuchet ms",verdana,arial,sans-serif;font-size:16px;fill:#333;}@keyframes edge-animation-frame{from{stroke-dashoffset:0;}}@keyframes dash{to{stroke-dashoffset:0;}}#my-svg .edge-animation-slow{stroke-dasharray:9,5!important;stroke-dashoffset:900;animation:dash 50s linear infinite;stroke-linecap:round;}#my-svg .edge-animation-fast{stroke-dasharray:9,5!important;stroke-dashoffset:900;animation:dash 20s linear infinite;stroke-linecap:round;}#my-svg .error-icon{fill:#552222;}#my-svg .error-text{fill:#552222;stroke:#552222;}#my-svg .edge-thickness-normal{stroke-width:1px;}#my-svg .edge-thickness-thick{stroke-width:3.5px;}#my-svg .edge-pattern-solid{stroke-dasharray:0;}#my-svg .edge-thickness-invisible{stroke-width:0;fill:none;}#my-svg .edge-pattern-dashed{stroke-dasharray:3;}#my-svg .edge-pattern-dotted{stroke-dasharray:2;}#my-svg .marker{fill:#333333;stroke:#333333;}#my-svg .marker.cross{stroke:#333333;}#my-svg svg{font-family:"trebuchet ms",verdana,arial,sans-serif;font-size:16px;}#my-svg p{margin:0;}#my-svg .entityBox{fill:#ECECFF;stroke:#9370DB;}#my-svg .relationshipLabelBox{fill:hsl(80, 100%, 96.2745098039%);opacity:0.7;background-color:hsl(80, 100%, 96.2745098039%);}#my-svg .relationshipLabelBox rect{opacity:0.5;}#my-svg .labelBkg{background-color:rgba(248.6666666666, 255, 235.9999999999, 0.5);}#my-svg .edgeLabel{background-color:rgba(232,232,232, 0.8);}#my-svg .edgeLabel .label rect{fill:rgba(232,232,232, 0.8);}#my-svg .edgeLabel .label text{fill:#333;}#my-svg .edgeLabel .label{fill:#9370DB;font-size:14px;}#my-svg .label{font-family:"trebuchet ms",verdana,arial,sans-serif;color:#333;}#my-svg .edge-pattern-dashed{stroke-dasharray:8,8;}#my-svg .node rect,#my-svg .node circle,#my-svg .node ellipse,#my-svg .node polygon{fill:#ECECFF;stroke:#9370DB;stroke-width:1px;}#my-svg .relationshipLine{stroke:#333333;stroke-width:1px;fill:none;}#my-svg .marker{fill:none!important;stroke:#333333!important;stroke-width:1;}#my-svg [data-look=neo].labelBkg{background-color:rgba(248.6666666666, 255, 235.9999999999, 0.5);}#my-svg .cluster rect{fill:#ffffde;stroke:#aaaa33;stroke-width:1px;}#my-svg .cluster text{fill:#333;}#my-svg .cluster-label text{fill:#333;}#my-svg .node .neo-node{stroke:#9370DB;}#my-svg [data-look="neo"].node rect,#my-svg [data-look="neo"].cluster rect,#my-svg [data-look="neo"].node polygon{stroke:#9370DB;filter:drop-shadow(1px 2px 2px rgba(185, 185, 185, 1));}#my-svg [data-look="neo"].swimlane.cluster rect{filter:none;}#my-svg [data-look="neo"].node path{stroke:#9370DB;stroke-width:1px;}#my-svg [data-look="neo"].node .outer-path{filter:drop-shadow(1px 2px 2px rgba(185, 185, 185, 1));}#my-svg [data-look="neo"].node .neo-line path{stroke:#9370DB;filter:none;}#my-svg [data-look="neo"].node circle{stroke:#9370DB;filter:drop-shadow(1px 2px 2px rgba(185, 185, 185, 1));}#my-svg [data-look="neo"].node circle .state-start{fill:#000000;}#my-svg [data-look="neo"].icon-shape .icon{fill:#9370DB;filter:drop-shadow(1px 2px 2px rgba(185, 185, 185, 1));}#my-svg [data-look="neo"].icon-shape .icon-neo path{stroke:#9370DB;filter:drop-shadow(1px 2px 2px rgba(185, 185, 185, 1));}#my-svg :root{--mermaid-font-family:"trebuchet ms",verdana,arial,sans-serif;}</style><g><defs><marker id="my-svg_er-onlyOneStart" class="marker onlyOne er" refX="0" refY="9" markerWidth="18" markerHeight="18" orient="auto"><path d="M9,0 L9,18 M15,0 L15,18"/></marker></defs><defs><marker id="my-svg_er-onlyOneEnd" class="marker onlyOne er" refX="18" refY="9" markerWidth="18" markerHeight="18" orient="auto"><path d="M3,0 L3,18 M9,0 L9,18"/></marker></defs><defs><marker id="my-svg_er-zeroOrOneStart" class="marker zeroOrOne er" refX="0" refY="9" markerWidth="30" markerHeight="18" orient="auto"><circle fill="white" cx="21" cy="9" r="6"/><path d="M9,0 L9,18"/></marker></defs><defs><marker id="my-svg_er-zeroOrOneEnd" class="marker zeroOrOne er" refX="30" refY="9" markerWidth="30" markerHeight="18" orient="auto"><circle fill="white" cx="9" cy="9" r="6"/><path d="M21,0 L21,18"/></marker></defs><defs><marker id="my-svg_er-oneOrMoreStart" class="marker oneOrMore er" refX="18" refY="18" markerWidth="45" markerHeight="36" orient="auto"><path d="M0,18 Q 18,0 36,18 Q 18,36 0,18 M42,9 L42,27"/></marker></defs><defs><marker id="my-svg_er-oneOrMoreEnd" class="marker oneOrMore er" refX="27" refY="18" markerWidth="45" markerHeight="36" orient="auto"><path d="M3,9 L3,27 M9,18 Q27,0 45,18 Q27,36 9,18"/></marker></defs><defs><marker id="my-svg_er-zeroOrMoreStart" class="marker zeroOrMore er" refX="18" refY="18" markerWidth="57" markerHeight="36" orient="auto"><circle fill="white" cx="48" cy="18" r="6"/><path d="M0,18 Q18,0 36,18 Q18,36 0,18"/></marker></defs><defs><marker id="my-svg_er-zeroOrMoreEnd" class="marker zeroOrMore er" refX="39" refY="18" markerWidth="57" markerHeight="36" orient="auto"><circle fill="white" cx="9" cy="18" r="6"/><path d="M21,18 Q39,0 57,18 Q39,36 21,18"/></marker></defs><g class="root"><g class="clusters"/><g class="edgePaths"><path d="M130.883,264.5L130.883,272.917C130.883,281.333,130.883,298.167,130.883,315C130.883,331.833,130.883,348.667,130.883,357.083L130.883,365.5" id="my-svg-id_entity-tracks-0_entity-fingerprints-1_0" class="edge-thickness-normal edge-pattern-solid relationshipLine" style="undefined;;;undefined" data-edge="true" data-et="edge" data-id="id_entity-tracks-0_entity-fingerprints-1_0" data-points="W3sieCI6MTMwLjg4MjgxMjUsInkiOjI2NC41fSx7IngiOjEzMC44ODI4MTI1LCJ5IjozMTV9LHsieCI6MTMwLjg4MjgxMjUsInkiOjM2NS41fV0=" data-look="classic" marker-start="url(#my-svg_er-onlyOneStart)" marker-end="url(#my-svg_er-zeroOrMoreEnd)"/></g><g class="edgeLabels"><g class="edgeLabel" transform="translate(130.8828125, 315)"><g class="label" data-id="id_entity-tracks-0_entity-fingerprints-1_0" transform="translate(-30.3515625, -10.5)"><foreignObject width="60.703125" height="21"><div xmlns="http://www.w3.org/1999/xhtml" class="labelBkg" style="display: table-cell; white-space: nowrap; line-height: 1.5; max-width: 200px; text-align: center;"><span class="edgeLabel"><p>has many</p></span></div></foreignObject></g></g></g><g class="nodes"><g class="node default" id="my-svg-entity-tracks-0" data-look="classic" transform="translate(130.8828125, 136.25)"><g class="outer-path" style=""><path d="M-122.8828125 -128.25 L122.8828125 -128.25 L122.8828125 128.25 L-122.8828125 128.25" stroke="none" stroke-width="0" fill="#ECECFF"/><path d="M-122.8828125 -128.25 C-38.01281246141269 -128.25, 46.857187577174614 -128.25, 122.8828125 -128.25 M-122.8828125 -128.25 C-62.72713987102999 -128.25, -2.571467242059981 -128.25, 122.8828125 -128.25 M122.8828125 -128.25 C122.8828125 -71.84811878668793, 122.8828125 -15.446237573375868, 122.8828125 128.25 M122.8828125 -128.25 C122.8828125 -63.60406545655745, 122.8828125 1.0418690868851002, 122.8828125 128.25 M122.8828125 128.25 C59.1117823024455 128.25, -4.659247895109004 128.25, -122.8828125 128.25 M122.8828125 128.25 C48.546277352978336 128.25, -25.790257794043328 128.25, -122.8828125 128.25 M-122.8828125 128.25 C-122.8828125 65.9046179047328, -122.8828125 3.559235809465605, -122.8828125 -128.25 M-122.8828125 128.25 C-122.8828125 62.472754173909664, -122.8828125 -3.3044916521806726, -122.8828125 -128.25" stroke="#9370DB" stroke-width="1.3" fill="none" stroke-dasharray="0 0"/></g><g style="" class="row-rect-odd"><path d="M-122.8828125 -85.5 L122.8828125 -85.5 L122.8828125 -42.75 L-122.8828125 -42.75" stroke="none" stroke-width="0" fill="hsl(240, 100%, 100%)"/><path d="M-122.8828125 -85.5 C-46.45122370844868 -85.5, 29.98036508310264 -85.5, 122.8828125 -85.5 M-122.8828125 -85.5 C-33.92333910472931 -85.5, 55.03613429054138 -85.5, 122.8828125 -85.5 M122.8828125 -85.5 C122.8828125 -76.17884082131883, 122.8828125 -66.85768164263767, 122.8828125 -42.75 M122.8828125 -85.5 C122.8828125 -70.70013256015181, 122.8828125 -55.90026512030363, 122.8828125 -42.75 M122.8828125 -42.75 C30.3030340217436 -42.75, -62.2767444565128 -42.75, -122.8828125 -42.75 M122.8828125 -42.75 C66.99374390148265 -42.75, 11.10467530296529 -42.75, -122.8828125 -42.75 M-122.8828125 -42.75 C-122.8828125 -53.520372204138305, -122.8828125 -64.29074440827661, -122.8828125 -85.5 M-122.8828125 -42.75 C-122.8828125 -59.70651536919825, -122.8828125 -76.6630307383965, -122.8828125 -85.5" stroke="#9370DB" stroke-width="1.3" fill="none" stroke-dasharray="0 0"/></g><g style="" class="row-rect-even"><path d="M-122.8828125 -42.75 L122.8828125 -42.75 L122.8828125 0 L-122.8828125 0" stroke="none" stroke-width="0" fill="hsl(240, 100%, 97.2745098039%)"/><path d="M-122.8828125 -42.75 C-67.24257616962788 -42.75, -11.602339839255777 -42.75, 122.8828125 -42.75 M-122.8828125 -42.75 C-46.626090242782496 -42.75, 29.630632014435008 -42.75, 122.8828125 -42.75 M122.8828125 -42.75 C122.8828125 -32.58696679926821, 122.8828125 -22.423933598536422, 122.8828125 0 M122.8828125 -42.75 C122.8828125 -29.68642465180497, 122.8828125 -16.62284930360994, 122.8828125 0 M122.8828125 0 C59.32023294383162 0, -4.24234661233676 0, -122.8828125 0 M122.8828125 0 C58.66482350703723 0, -5.553165485925547 0, -122.8828125 0 M-122.8828125 0 C-122.8828125 -15.408845709026073, -122.8828125 -30.817691418052146, -122.8828125 -42.75 M-122.8828125 0 C-122.8828125 -15.365435233906663, -122.8828125 -30.730870467813325, -122.8828125 -42.75" stroke="#9370DB" stroke-width="1.3" fill="none" stroke-dasharray="0 0"/></g><g style="" class="row-rect-odd"><path d="M-122.8828125 0 L122.8828125 0 L122.8828125 42.75 L-122.8828125 42.75" stroke="none" stroke-width="0" fill="hsl(240, 100%, 100%)"/><path d="M-122.8828125 0 C-26.56147931331681 0, 69.75985387336638 0, 122.8828125 0 M-122.8828125 0 C-56.48423434096243 0, 9.914343818075139 0, 122.8828125 0 M122.8828125 0 C122.8828125 9.60064629139372, 122.8828125 19.20129258278744, 122.8828125 42.75 M122.8828125 0 C122.8828125 11.36253003322216, 122.8828125 22.72506006644432, 122.8828125 42.75 M122.8828125 42.75 C44.84870773111906 42.75, -33.185397037761874 42.75, -122.8828125 42.75 M122.8828125 42.75 C46.51885447789935 42.75, -29.845103544201294 42.75, -122.8828125 42.75 M-122.8828125 42.75 C-122.8828125 34.02112932656151, -122.8828125 25.29225865312301, -122.8828125 0 M-122.8828125 42.75 C-122.8828125 29.673917397263367, -122.8828125 16.597834794526733, -122.8828125 0" stroke="#9370DB" stroke-width="1.3" fill="none" stroke-dasharray="0 0"/></g><g style="" class="row-rect-even"><path d="M-122.8828125 42.75 L122.8828125 42.75 L122.8828125 85.5 L-122.8828125 85.5" stroke="none" stroke-width="0" fill="hsl(240, 100%, 97.2745098039%)"/><path d="M-122.8828125 42.75 C-37.03969593189228 42.75, 48.803420636215435 42.75, 122.8828125 42.75 M-122.8828125 42.75 C-55.356635823724815 42.75, 12.16954085255037 42.75, 122.8828125 42.75 M122.8828125 42.75 C122.8828125 53.55271824212631, 122.8828125 64.35543648425262, 122.8828125 85.5 M122.8828125 42.75 C122.8828125 53.06924633629839, 122.8828125 63.38849267259678, 122.8828125 85.5 M122.8828125 85.5 C31.723739962094882 85.5, -59.435332575810236 85.5, -122.8828125 85.5 M122.8828125 85.5 C33.123744994608344 85.5, -56.63532251078331 85.5, -122.8828125 85.5 M-122.8828125 85.5 C-122.8828125 74.08906859620717, -122.8828125 62.678137192414326, -122.8828125 42.75 M-122.8828125 85.5 C-122.8828125 73.30416688204939, -122.8828125 61.108333764098774, -122.8828125 42.75" stroke="#9370DB" stroke-width="1.3" fill="none" stroke-dasharray="0 0"/></g><g style="" class="row-rect-odd"><path d="M-122.8828125 85.5 L122.8828125 85.5 L122.8828125 128.25 L-122.8828125 128.25" stroke="none" stroke-width="0" fill="hsl(240, 100%, 100%)"/><path d="M-122.8828125 85.5 C-28.800774694326066 85.5, 65.28126311134787 85.5, 122.8828125 85.5 M-122.8828125 85.5 C-71.3669971003323 85.5, -19.851181700664597 85.5, 122.8828125 85.5 M122.8828125 85.5 C122.8828125 96.43176642316986, 122.8828125 107.36353284633972, 122.8828125 128.25 M122.8828125 85.5 C122.8828125 102.32192745272313, 122.8828125 119.14385490544626, 122.8828125 128.25 M122.8828125 128.25 C30.041317872685525 128.25, -62.80017675462895 128.25, -122.8828125 128.25 M122.8828125 128.25 C69.4951553158311 128.25, 16.107498131662197 128.25, -122.8828125 128.25 M-122.8828125 128.25 C-122.8828125 113.99201601503896, -122.8828125 99.7340320300779, -122.8828125 85.5 M-122.8828125 128.25 C-122.8828125 112.1043969662606, -122.8828125 95.95879393252119, -122.8828125 85.5" stroke="#9370DB" stroke-width="1.3" fill="none" stroke-dasharray="0 0"/></g><g class="label name" transform="translate(-21.3359375, -118.875)" style=""><foreignObject width="42.671875" height="24"><div xmlns="http://www.w3.org/1999/xhtml" style="display: table-cell; white-space: nowrap; line-height: 1.5; max-width: 138px; text-align: start;"><span class="nodeLabel"><p>tracks</p></span></div></foreignObject></g><g class="label attribute-type" transform="translate(-110.3828125, -76.125)" style=""><foreignObject width="71.125" height="24"><div xmlns="http://www.w3.org/1999/xhtml" style="display: table-cell; white-space: nowrap; line-height: 1.5; max-width: 169px; text-align: start;"><span class="nodeLabel"><p>INTEGER</p></span></div></foreignObject></g><g class="label attribute-name" transform="translate(-14.2578125, -76.125)" style=""><foreignObject width="12.453125" height="24"><div xmlns="http://www.w3.org/1999/xhtml" style="display: table-cell; white-space: nowrap; line-height: 1.5; max-width: 112px; text-align: start;"><span class="nodeLabel"><p>id</p></span></div></foreignObject></g><g class="label attribute-keys" transform="translate(89.0390625, -76.125)" style=""><foreignObject width="21.34375" height="24"><div xmlns="http://www.w3.org/1999/xhtml" style="display: table-cell; white-space: nowrap; line-height: 1.5; max-width: 121px; text-align: start;"><span class="nodeLabel"><p>PK</p></span></div></foreignObject></g><g class="label attribute-comment" transform="translate(135.3828125, -76.125)" style=""><foreignObject width="0" height="0"><div xmlns="http://www.w3.org/1999/xhtml" style="display: table-cell; white-space: nowrap; line-height: 1.5; max-width: 100px; text-align: start;"><span class="nodeLabel"></span></div></foreignObject></g><g class="label attribute-type" transform="translate(-110.3828125, -33.375)" style=""><foreignObject width="40.890625" height="24"><div xmlns="http://www.w3.org/1999/xhtml" style="display: table-cell; white-space: nowrap; line-height: 1.5; max-width: 141px; text-align: start;"><span class="nodeLabel"><p>TEXT</p></span></div></foreignObject></g><g class="label attribute-name" transform="translate(-14.2578125, -33.375)" style=""><foreignObject width="24.90625" height="24"><div xmlns="http://www.w3.org/1999/xhtml" style="display: table-cell; white-space: nowrap; line-height: 1.5; max-width: 125px; text-align: start;"><span class="nodeLabel"><p>title</p></span></div></foreignObject></g><g class="label attribute-keys" transform="translate(89.0390625, -33.375)" style=""><foreignObject width="0" height="0"><div xmlns="http://www.w3.org/1999/xhtml" style="display: table-cell; white-space: nowrap; line-height: 1.5; max-width: 100px; text-align: start;"><span class="nodeLabel"></span></div></foreignObject></g><g class="label attribute-comment" transform="translate(135.3828125, -33.375)" style=""><foreignObject width="0" height="0"><div xmlns="http://www.w3.org/1999/xhtml" style="display: table-cell; white-space: nowrap; line-height: 1.5; max-width: 100px; text-align: start;"><span class="nodeLabel"></span></div></foreignObject></g><g class="label attribute-type" transform="translate(-110.3828125, 9.375)" style=""><foreignObject width="40.890625" height="24"><div xmlns="http://www.w3.org/1999/xhtml" style="display: table-cell; white-space: nowrap; line-height: 1.5; max-width: 141px; text-align: start;"><span class="nodeLabel"><p>TEXT</p></span></div></foreignObject></g><g class="label attribute-name" transform="translate(-14.2578125, 9.375)" style=""><foreignObject width="34.671875" height="24"><div xmlns="http://www.w3.org/1999/xhtml" style="display: table-cell; white-space: nowrap; line-height: 1.5; max-width: 133px; text-align: start;"><span class="nodeLabel"><p>artist</p></span></div></foreignObject></g><g class="label attribute-keys" transform="translate(89.0390625, 9.375)" style=""><foreignObject width="0" height="0"><div xmlns="http://www.w3.org/1999/xhtml" style="display: table-cell; white-space: nowrap; line-height: 1.5; max-width: 100px; text-align: start;"><span class="nodeLabel"></span></div></foreignObject></g><g class="label attribute-comment" transform="translate(135.3828125, 9.375)" style=""><foreignObject width="0" height="0"><div xmlns="http://www.w3.org/1999/xhtml" style="display: table-cell; white-space: nowrap; line-height: 1.5; max-width: 100px; text-align: start;"><span class="nodeLabel"></span></div></foreignObject></g><g class="label attribute-type" transform="translate(-110.3828125, 52.125)" style=""><foreignObject width="41.796875" height="24"><div xmlns="http://www.w3.org/1999/xhtml" style="display: table-cell; white-space: nowrap; line-height: 1.5; max-width: 142px; text-align: start;"><span class="nodeLabel"><p>REAL</p></span></div></foreignObject></g><g class="label attribute-name" transform="translate(-14.2578125, 52.125)" style=""><foreignObject width="57.828125" height="24"><div xmlns="http://www.w3.org/1999/xhtml" style="display: table-cell; white-space: nowrap; line-height: 1.5; max-width: 153px; text-align: start;"><span class="nodeLabel"><p>duration</p></span></div></foreignObject></g><g class="label attribute-keys" transform="translate(89.0390625, 52.125)" style=""><foreignObject width="0" height="0"><div xmlns="http://www.w3.org/1999/xhtml" style="display: table-cell; white-space: nowrap; line-height: 1.5; max-width: 100px; text-align: start;"><span class="nodeLabel"></span></div></foreignObject></g><g class="label attribute-comment" transform="translate(135.3828125, 52.125)" style=""><foreignObject width="0" height="0"><div xmlns="http://www.w3.org/1999/xhtml" style="display: table-cell; white-space: nowrap; line-height: 1.5; max-width: 100px; text-align: start;"><span class="nodeLabel"></span></div></foreignObject></g><g class="label attribute-type" transform="translate(-110.3828125, 94.875)" style=""><foreignObject width="71.125" height="24"><div xmlns="http://www.w3.org/1999/xhtml" style="display: table-cell; white-space: nowrap; line-height: 1.5; max-width: 169px; text-align: start;"><span class="nodeLabel"><p>INTEGER</p></span></div></foreignObject></g><g class="label attribute-name" transform="translate(-14.2578125, 94.875)" style=""><foreignObject width="78.296875" height="24"><div xmlns="http://www.w3.org/1999/xhtml" style="display: table-cell; white-space: nowrap; line-height: 1.5; max-width: 179px; text-align: start;"><span class="nodeLabel"><p>indexed_at</p></span></div></foreignObject></g><g class="label attribute-keys" transform="translate(89.0390625, 94.875)" style=""><foreignObject width="0" height="0"><div xmlns="http://www.w3.org/1999/xhtml" style="display: table-cell; white-space: nowrap; line-height: 1.5; max-width: 100px; text-align: start;"><span class="nodeLabel"></span></div></foreignObject></g><g class="label attribute-comment" transform="translate(135.3828125, 94.875)" style=""><foreignObject width="0" height="0"><div xmlns="http://www.w3.org/1999/xhtml" style="display: table-cell; white-space: nowrap; line-height: 1.5; max-width: 100px; text-align: start;"><span class="nodeLabel"></span></div></foreignObject></g><g class="divider"><path d="M-122.8828125 -85.50005 L-122.8828125 -85.49995 L122.8828125 -85.49995 L122.8828125 -85.50005" stroke="none" stroke-width="0" fill="#ECECFF" fill-rule="evenodd"/><path d="M-122.8828125 -85.50005 C-122.8828125 -85.50002645433567, -122.8828125 -85.50000290867132, -122.8828125 -85.49995 M-122.8828125 -85.50005 C-122.8828125 -85.50002453351405, -122.8828125 -85.49999906702809, -122.8828125 -85.49995 M-122.8828125 -85.49995 C-35.239211348649974 -85.49995, 52.40438980270005 -85.49995, 122.8828125 -85.49995 M-122.8828125 -85.49995 C-65.02288010820885 -85.49995, -7.1629477164176905 -85.49995, 122.8828125 -85.49995 M122.8828125 -85.49995 C122.8828125 -85.49997905336923, 122.8828125 -85.50000810673846, 122.8828125 -85.50005 M122.8828125 -85.49995 C122.8828125 -85.49997723316626, 122.8828125 -85.50000446633253, 122.8828125 -85.50005 M122.8828125 -85.50005 C71.48570356522535 -85.50005, 20.088594630450686 -85.50005, -122.8828125 -85.50005 M122.8828125 -85.50005 C31.902623474696455 -85.50005, -59.07756555060709 -85.50005, -122.8828125 -85.50005" stroke="#9370DB" stroke-width="1.3" fill="none" stroke-dasharray="0 0"/></g><g class="divider"><path d="M-26.7578625 -85.5 L-26.7577625 -85.5 L-26.7577625 128.25 L-26.7578625 128.25" stroke="none" stroke-width="0" fill="#ECECFF" fill-rule="evenodd"/><path d="M-26.7578625 -85.5 C-26.757839549942226 -85.5, -26.757816599884446 -85.5, -26.7577625 -85.5 M-26.7578625 -85.5 C-26.757827551310854 -85.5, -26.757792602621706 -85.5, -26.7577625 -85.5 M-26.7577625 -85.5 C-26.7577625 -3.5464708076733302, -26.7577625 78.40705838465334, -26.7577625 128.25 M-26.7577625 -85.5 C-26.7577625 -40.06202846852401, -26.7577625 5.3759430629519755, -26.7577625 128.25 M-26.7577625 128.25 C-26.757791898628557 128.25, -26.757821297257113 128.25, -26.7578625 128.25 M-26.7577625 128.25 C-26.757791406292412 128.25, -26.757820312584826 128.25, -26.7578625 128.25 M-26.7578625 128.25 C-26.7578625 48.87648206265864, -26.7578625 -30.497035874682723, -26.7578625 -85.5 M-26.7578625 128.25 C-26.7578625 57.822433034014594, -26.7578625 -12.605133931970812, -26.7578625 -85.5" stroke="#9370DB" stroke-width="1.3" fill="none" stroke-dasharray="0 0"/></g><g class="divider"><path d="M76.5390125 -85.5 L76.5391125 -85.5 L76.5391125 128.25 L76.5390125 128.25" stroke="none" stroke-width="0" fill="#ECECFF" fill-rule="evenodd"/><path d="M76.5390125 -85.5 C76.53905084599356 -85.5, 76.53908919198712 -85.5, 76.5391125 -85.5 M76.5390125 -85.5 C76.53904524711746 -85.5, 76.53907799423492 -85.5, 76.5391125 -85.5 M76.5391125 -85.5 C76.5391125 -27.39245581130593, 76.5391125 30.715088377388142, 76.5391125 128.25 M76.5391125 -85.5 C76.5391125 -38.50581148113771, 76.5391125 8.488377037724575, 76.5391125 128.25 M76.5391125 128.25 C76.53908846497649 128.25, 76.53906442995299 128.25, 76.5390125 128.25 M76.5391125 128.25 C76.53907424401417 128.25, 76.53903598802835 128.25, 76.5390125 128.25 M76.5390125 128.25 C76.5390125 74.48472908789864, 76.5390125 20.719458175797286, 76.5390125 -85.5 M76.5390125 128.25 C76.5390125 65.01637260124349, 76.5390125 1.7827452024869643, 76.5390125 -85.5" stroke="#9370DB" stroke-width="1.3" fill="none" stroke-dasharray="0 0"/></g><g class="divider"><path d="M-122.8828125 -85.50005 L-122.8828125 -85.49995 L122.8828125 -85.49995 L122.8828125 -85.50005" stroke="none" stroke-width="0" fill="#ECECFF" fill-rule="evenodd"/><path d="M-122.8828125 -85.50005 C-122.8828125 -85.50002649207131, -122.8828125 -85.50000298414261, -122.8828125 -85.49995 M-122.8828125 -85.50005 C-122.8828125 -85.50001688844792, -122.8828125 -85.49998377689585, -122.8828125 -85.49995 M-122.8828125 -85.49995 C-67.69524142283734 -85.49995, -12.507670345674697 -85.49995, 122.8828125 -85.49995 M-122.8828125 -85.49995 C-36.551545142710125 -85.49995, 49.77972221457975 -85.49995, 122.8828125 -85.49995 M122.8828125 -85.49995 C122.8828125 -85.49997225610831, 122.8828125 -85.49999451221662, 122.8828125 -85.50005 M122.8828125 -85.49995 C122.8828125 -85.49998744911323, 122.8828125 -85.50002489822647, 122.8828125 -85.50005 M122.8828125 -85.50005 C53.2624997680044 -85.50005, -16.357812963991194 -85.50005, -122.8828125 -85.50005 M122.8828125 -85.50005 C28.64930085355111 -85.50005, -65.58421079289778 -85.50005, -122.8828125 -85.50005" stroke="#9370DB" stroke-width="1.3" fill="none" stroke-dasharray="0 0"/></g></g><g class="node default" id="my-svg-entity-fingerprints-1" data-look="classic" transform="translate(130.8828125, 472.375)"><g class="outer-path" style=""><path d="M-122.71875 -106.875 L122.71875 -106.875 L122.71875 106.875 L-122.71875 106.875" stroke="none" stroke-width="0" fill="#ECECFF"/><path d="M-122.71875 -106.875 C-69.8827885058623 -106.875, -17.046827011724574 -106.875, 122.71875 -106.875 M-122.71875 -106.875 C-54.003684455779606 -106.875, 14.711381088440788 -106.875, 122.71875 -106.875 M122.71875 -106.875 C122.71875 -38.28085395318891, 122.71875 30.31329209362218, 122.71875 106.875 M122.71875 -106.875 C122.71875 -50.74482401752325, 122.71875 5.3853519649535, 122.71875 106.875 M122.71875 106.875 C55.715176712042194 106.875, -11.288396575915613 106.875, -122.71875 106.875 M122.71875 106.875 C48.046621648498956 106.875, -26.625506703002088 106.875, -122.71875 106.875 M-122.71875 106.875 C-122.71875 49.265369873013064, -122.71875 -8.344260253973871, -122.71875 -106.875 M-122.71875 106.875 C-122.71875 54.630067771841, -122.71875 2.385135543681997, -122.71875 -106.875" stroke="#9370DB" stroke-width="1.3" fill="none" stroke-dasharray="0 0"/></g><g style="" class="row-rect-odd"><path d="M-122.71875 -64.125 L122.71875 -64.125 L122.71875 -21.375 L-122.71875 -21.375" stroke="none" stroke-width="0" fill="hsl(240, 100%, 100%)"/><path d="M-122.71875 -64.125 C-56.04242743946111 -64.125, 10.633895121077785 -64.125, 122.71875 -64.125 M-122.71875 -64.125 C-62.189399426964954 -64.125, -1.6600488539299079 -64.125, 122.71875 -64.125 M122.71875 -64.125 C122.71875 -47.53579165880963, 122.71875 -30.946583317619258, 122.71875 -21.375 M122.71875 -64.125 C122.71875 -50.68442863670684, 122.71875 -37.24385727341369, 122.71875 -21.375 M122.71875 -21.375 C54.69534505180256 -21.375, -13.328059896394876 -21.375, -122.71875 -21.375 M122.71875 -21.375 C26.299826960250826 -21.375, -70.11909607949835 -21.375, -122.71875 -21.375 M-122.71875 -21.375 C-122.71875 -31.62061268523891, -122.71875 -41.86622537047782, -122.71875 -64.125 M-122.71875 -21.375 C-122.71875 -38.21184500784407, -122.71875 -55.04869001568814, -122.71875 -64.125" stroke="#9370DB" stroke-width="1.3" fill="none" stroke-dasharray="0 0"/></g><g style="" class="row-rect-even"><path d="M-122.71875 -21.375 L122.71875 -21.375 L122.71875 21.375 L-122.71875 21.375" stroke="none" stroke-width="0" fill="hsl(240, 100%, 97.2745098039%)"/><path d="M-122.71875 -21.375 C-41.41696718593394 -21.375, 39.88481562813212 -21.375, 122.71875 -21.375 M-122.71875 -21.375 C-30.738728335672647 -21.375, 61.241293328654706 -21.375, 122.71875 -21.375 M122.71875 -21.375 C122.71875 -8.156377058170005, 122.71875 5.06224588365999, 122.71875 21.375 M122.71875 -21.375 C122.71875 -6.328825140931336, 122.71875 8.717349718137328, 122.71875 21.375 M122.71875 21.375 C36.7076585386142 21.375, -49.303432922771606 21.375, -122.71875 21.375 M122.71875 21.375 C25.49478015530893 21.375, -71.72918968938214 21.375, -122.71875 21.375 M-122.71875 21.375 C-122.71875 9.649071598388264, -122.71875 -2.076856803223471, -122.71875 -21.375 M-122.71875 21.375 C-122.71875 8.53892193774399, -122.71875 -4.297156124512021, -122.71875 -21.375" stroke="#9370DB" stroke-width="1.3" fill="none" stroke-dasharray="0 0"/></g><g style="" class="row-rect-odd"><path d="M-122.71875 21.375 L122.71875 21.375 L122.71875 64.125 L-122.71875 64.125" stroke="none" stroke-width="0" fill="hsl(240, 100%, 100%)"/><path d="M-122.71875 21.375 C-69.15279031224793 21.375, -15.58683062449586 21.375, 122.71875 21.375 M-122.71875 21.375 C-65.57717184487706 21.375, -8.435593689754114 21.375, 122.71875 21.375 M122.71875 21.375 C122.71875 35.08670261224182, 122.71875 48.79840522448364, 122.71875 64.125 M122.71875 21.375 C122.71875 36.0148209142738, 122.71875 50.654641828547604, 122.71875 64.125 M122.71875 64.125 C39.65088322650024 64.125, -43.41698354699952 64.125, -122.71875 64.125 M122.71875 64.125 C32.69718049111793 64.125, -57.32438901776413 64.125, -122.71875 64.125 M-122.71875 64.125 C-122.71875 53.40978889104771, -122.71875 42.69457778209543, -122.71875 21.375 M-122.71875 64.125 C-122.71875 51.65497710551909, -122.71875 39.184954211038175, -122.71875 21.375" stroke="#9370DB" stroke-width="1.3" fill="none" stroke-dasharray="0 0"/></g><g style="" class="row-rect-even"><path d="M-122.71875 64.125 L122.71875 64.125 L122.71875 106.875 L-122.71875 106.875" stroke="none" stroke-width="0" fill="hsl(240, 100%, 97.2745098039%)"/><path d="M-122.71875 64.125 C-29.346637393739428 64.125, 64.02547521252114 64.125, 122.71875 64.125 M-122.71875 64.125 C-55.44055752653718 64.125, 11.837634946925647 64.125, 122.71875 64.125 M122.71875 64.125 C122.71875 74.8018140901365, 122.71875 85.47862818027299, 122.71875 106.875 M122.71875 64.125 C122.71875 78.84544738471759, 122.71875 93.56589476943518, 122.71875 106.875 M122.71875 106.875 C70.13342077030339 106.875, 17.548091540606777 106.875, -122.71875 106.875 M122.71875 106.875 C34.135471064288055 106.875, -54.44780787142389 106.875, -122.71875 106.875 M-122.71875 106.875 C-122.71875 96.89803064685204, -122.71875 86.92106129370407, -122.71875 64.125 M-122.71875 106.875 C-122.71875 95.67699925693495, -122.71875 84.4789985138699, -122.71875 64.125" stroke="#9370DB" stroke-width="1.3" fill="none" stroke-dasharray="0 0"/></g><g class="label name" transform="translate(-39.578125, -97.5)" style=""><foreignObject width="79.15625" height="24"><div xmlns="http://www.w3.org/1999/xhtml" style="display: table-cell; white-space: nowrap; line-height: 1.5; max-width: 175px; text-align: start;"><span class="nodeLabel"><p>fingerprints</p></span></div></foreignObject></g><g class="label attribute-type" transform="translate(-110.21875, -54.75)" style=""><foreignObject width="71.125" height="24"><div xmlns="http://www.w3.org/1999/xhtml" style="display: table-cell; white-space: nowrap; line-height: 1.5; max-width: 169px; text-align: start;"><span class="nodeLabel"><p>INTEGER</p></span></div></foreignObject></g><g class="label attribute-name" transform="translate(-14.09375, -54.75)" style=""><foreignObject width="12.453125" height="24"><div xmlns="http://www.w3.org/1999/xhtml" style="display: table-cell; white-space: nowrap; line-height: 1.5; max-width: 112px; text-align: start;"><span class="nodeLabel"><p>id</p></span></div></foreignObject></g><g class="label attribute-keys" transform="translate(88.875, -54.75)" style=""><foreignObject width="21.34375" height="24"><div xmlns="http://www.w3.org/1999/xhtml" style="display: table-cell; white-space: nowrap; line-height: 1.5; max-width: 121px; text-align: start;"><span class="nodeLabel"><p>PK</p></span></div></foreignObject></g><g class="label attribute-comment" transform="translate(135.21875, -54.75)" style=""><foreignObject width="0" height="0"><div xmlns="http://www.w3.org/1999/xhtml" style="display: table-cell; white-space: nowrap; line-height: 1.5; max-width: 100px; text-align: start;"><span class="nodeLabel"></span></div></foreignObject></g><g class="label attribute-type" transform="translate(-110.21875, -12)" style=""><foreignObject width="71.125" height="24"><div xmlns="http://www.w3.org/1999/xhtml" style="display: table-cell; white-space: nowrap; line-height: 1.5; max-width: 169px; text-align: start;"><span class="nodeLabel"><p>INTEGER</p></span></div></foreignObject></g><g class="label attribute-name" transform="translate(-14.09375, -12)" style=""><foreignObject width="56.03125" height="24"><div xmlns="http://www.w3.org/1999/xhtml" style="display: table-cell; white-space: nowrap; line-height: 1.5; max-width: 156px; text-align: start;"><span class="nodeLabel"><p>track_id</p></span></div></foreignObject></g><g class="label attribute-keys" transform="translate(88.875, -12)" style=""><foreignObject width="20.453125" height="24"><div xmlns="http://www.w3.org/1999/xhtml" style="display: table-cell; white-space: nowrap; line-height: 1.5; max-width: 121px; text-align: start;"><span class="nodeLabel"><p>FK</p></span></div></foreignObject></g><g class="label attribute-comment" transform="translate(135.21875, -12)" style=""><foreignObject width="0" height="0"><div xmlns="http://www.w3.org/1999/xhtml" style="display: table-cell; white-space: nowrap; line-height: 1.5; max-width: 100px; text-align: start;"><span class="nodeLabel"></span></div></foreignObject></g><g class="label attribute-type" transform="translate(-110.21875, 30.75)" style=""><foreignObject width="71.125" height="24"><div xmlns="http://www.w3.org/1999/xhtml" style="display: table-cell; white-space: nowrap; line-height: 1.5; max-width: 169px; text-align: start;"><span class="nodeLabel"><p>INTEGER</p></span></div></foreignObject></g><g class="label attribute-name" transform="translate(-14.09375, 30.75)" style=""><foreignObject width="34.703125" height="24"><div xmlns="http://www.w3.org/1999/xhtml" style="display: table-cell; white-space: nowrap; line-height: 1.5; max-width: 129px; text-align: start;"><span class="nodeLabel"><p>hash</p></span></div></foreignObject></g><g class="label attribute-keys" transform="translate(88.875, 30.75)" style=""><foreignObject width="0" height="0"><div xmlns="http://www.w3.org/1999/xhtml" style="display: table-cell; white-space: nowrap; line-height: 1.5; max-width: 100px; text-align: start;"><span class="nodeLabel"></span></div></foreignObject></g><g class="label attribute-comment" transform="translate(135.21875, 30.75)" style=""><foreignObject width="0" height="0"><div xmlns="http://www.w3.org/1999/xhtml" style="display: table-cell; white-space: nowrap; line-height: 1.5; max-width: 100px; text-align: start;"><span class="nodeLabel"></span></div></foreignObject></g><g class="label attribute-type" transform="translate(-110.21875, 73.5)" style=""><foreignObject width="71.125" height="24"><div xmlns="http://www.w3.org/1999/xhtml" style="display: table-cell; white-space: nowrap; line-height: 1.5; max-width: 169px; text-align: start;"><span class="nodeLabel"><p>INTEGER</p></span></div></foreignObject></g><g class="label attribute-name" transform="translate(-14.09375, 73.5)" style=""><foreignObject width="77.96875" height="24"><div xmlns="http://www.w3.org/1999/xhtml" style="display: table-cell; white-space: nowrap; line-height: 1.5; max-width: 179px; text-align: start;"><span class="nodeLabel"><p>time_offset</p></span></div></foreignObject></g><g class="label attribute-keys" transform="translate(88.875, 73.5)" style=""><foreignObject width="0" height="0"><div xmlns="http://www.w3.org/1999/xhtml" style="display: table-cell; white-space: nowrap; line-height: 1.5; max-width: 100px; text-align: start;"><span class="nodeLabel"></span></div></foreignObject></g><g class="label attribute-comment" transform="translate(135.21875, 73.5)" style=""><foreignObject width="0" height="0"><div xmlns="http://www.w3.org/1999/xhtml" style="display: table-cell; white-space: nowrap; line-height: 1.5; max-width: 100px; text-align: start;"><span class="nodeLabel"></span></div></foreignObject></g><g class="divider"><path d="M-122.71875 -64.12505 L-122.71875 -64.12495 L122.71875 -64.12495 L122.71875 -64.12505" stroke="none" stroke-width="0" fill="#ECECFF" fill-rule="evenodd"/><path d="M-122.71875 -64.12505 C-122.71875 -64.12501677604948, -122.71875 -64.12498355209894, -122.71875 -64.12495 M-122.71875 -64.12505 C-122.71875 -64.12501851949223, -122.71875 -64.12498703898446, -122.71875 -64.12495 M-122.71875 -64.12495 C-73.31286306727442 -64.12495, -23.90697613454884 -64.12495, 122.71875 -64.12495 M-122.71875 -64.12495 C-68.0072174999826 -64.12495, -13.295684999965218 -64.12495, 122.71875 -64.12495 M122.71875 -64.12495 C122.71875 -64.1249794609337, 122.71875 -64.1250089218674, 122.71875 -64.12505 M122.71875 -64.12495 C122.71875 -64.12497830027783, 122.71875 -64.12500660055566, 122.71875 -64.12505 M122.71875 -64.12505 C63.54436408945499 -64.12505, 4.3699781789099745 -64.12505, -122.71875 -64.12505 M122.71875 -64.12505 C31.490299922802862 -64.12505, -59.738150154394276 -64.12505, -122.71875 -64.12505" stroke="#9370DB" stroke-width="1.3" fill="none" stroke-dasharray="0 0"/></g><g class="divider"><path d="M-26.5938 -64.125 L-26.5937 -64.125 L-26.5937 106.875 L-26.5938 106.875" stroke="none" stroke-width="0" fill="#ECECFF" fill-rule="evenodd"/><path d="M-26.5938 -64.125 C-26.59376487691973 -64.125, -26.59372975383946 -64.125, -26.5937 -64.125 M-26.5938 -64.125 C-26.59376968375598 -64.125, -26.593739367511954 -64.125, -26.5937 -64.125 M-26.5937 -64.125 C-26.5937 -0.15913022214000705, -26.5937 63.806739555719986, -26.5937 106.875 M-26.5937 -64.125 C-26.5937 -0.8741551982437628, -26.5937 62.376689603512474, -26.5937 106.875 M-26.5937 106.875 C-26.593723734810986 106.875, -26.593747469621974 106.875, -26.5938 106.875 M-26.5937 106.875 C-26.59372765838891 106.875, -26.593755316777823 106.875, -26.5938 106.875 M-26.5938 106.875 C-26.5938 54.80593604339864, -26.5938 2.736872086797277, -26.5938 -64.125 M-26.5938 106.875 C-26.5938 54.73478598589126, -26.5938 2.594571971782514, -26.5938 -64.125" stroke="#9370DB" stroke-width="1.3" fill="none" stroke-dasharray="0 0"/></g><g class="divider"><path d="M76.37495 -64.125 L76.37505 -64.125 L76.37505 106.875 L76.37495 106.875" stroke="none" stroke-width="0" fill="#ECECFF" fill-rule="evenodd"/><path d="M76.37495 -64.125 C76.37498856474792 -64.125, 76.37502712949585 -64.125, 76.37505 -64.125 M76.37495 -64.125 C76.37498445652749 -64.125, 76.37501891305497 -64.125, 76.37505 -64.125 M76.37505 -64.125 C76.37505 -14.698710617063078, 76.37505 34.727578765873844, 76.37505 106.875 M76.37505 -64.125 C76.37505 -8.387630471140646, 76.37505 47.34973905771871, 76.37505 106.875 M76.37505 106.875 C76.37501066634228 106.875, 76.37497133268457 106.875, 76.37495 106.875 M76.37505 106.875 C76.37501540310535 106.875, 76.3749808062107 106.875, 76.37495 106.875 M76.37495 106.875 C76.37495 49.598749451667025, 76.37495 -7.677501096665949, 76.37495 -64.125 M76.37495 106.875 C76.37495 59.1709919107334, 76.37495 11.466983821466798, 76.37495 -64.125" stroke="#9370DB" stroke-width="1.3" fill="none" stroke-dasharray="0 0"/></g><g class="divider"><path d="M-122.71875 -64.12505 L-122.71875 -64.12495 L122.71875 -64.12495 L122.71875 -64.12505" stroke="none" stroke-width="0" fill="#ECECFF" fill-rule="evenodd"/><path d="M-122.71875 -64.12505 C-122.71875 -64.12502117784108, -122.71875 -64.12499235568214, -122.71875 -64.12495 M-122.71875 -64.12505 C-122.71875 -64.12502194210686, -122.71875 -64.12499388421371, -122.71875 -64.12495 M-122.71875 -64.12495 C-58.12989051905744 -64.12495, 6.45896896188512 -64.12495, 122.71875 -64.12495 M-122.71875 -64.12495 C-59.18070224464556 -64.12495, 4.357345510708882 -64.12495, 122.71875 -64.12495 M122.71875 -64.12495 C122.71875 -64.12498713358556, 122.71875 -64.12502426717114, 122.71875 -64.12505 M122.71875 -64.12495 C122.71875 -64.12498491985393, 122.71875 -64.12501983970786, 122.71875 -64.12505 M122.71875 -64.12505 C30.617764854602 -64.12505, -61.483220290796 -64.12505, -122.71875 -64.12505 M122.71875 -64.12505 C48.73315930998238 -64.12505, -25.252431380035233 -64.12505, -122.71875 -64.12505" stroke="#9370DB" stroke-width="1.3" fill="none" stroke-dasharray="0 0"/></g></g></g></g></g><defs><filter id="my-svg-drop-shadow" height="130%" width="130%"><feDropShadow dx="4" dy="4" stdDeviation="0" flood-opacity="0.06" flood-color="#000000"/></filter></defs><defs><filter id="my-svg-drop-shadow-small" height="150%" width="150%"><feDropShadow dx="2" dy="2" stdDeviation="0" flood-opacity="0.06" flood-color="#000000"/></filter></defs></svg>